<?xml version="1.0" standalone="no"?>
<!DOCTYPE svg PUBLIC "-//W3C//DTD SVG 20010904//EN"
 "http://www.w3.org/TR/2001/REC-SVG-20010904/DTD/svg10.dtd">
<svg version="1.0" xmlns="http://www.w3.org/2000/svg"
 width="48.000000pt" height="48.000000pt" viewBox="0 0 48.000000 48.000000"
 preserveAspectRatio="xMidYMid meet">

<g transform="translate(0.000000,48.000000) scale(0.100000,-0.100000)"
fill="#000000" stroke="none">
<path d="M169 456 c-56 -20 -96 -53 -126 -104 -23 -38 -28 -59 -28 -113 0 -56
5 -73 30 -115 19 -30 49 -60 79 -79 102 -63 241 -30 306 72 32 50 48 119 31
136 -12 12 -13 8 -32 -63 -15 -59 -79 -124 -138 -140 -163 -44 -303 131 -226
281 22 41 81 87 127 99 65 17 70 19 63 30 -8 13 -42 12 -86 -4z"/>
<path d="M320 430 c12 -23 0 -53 -28 -69 -16 -10 -16 -10 0 -11 58 -1 88 49
50 83 -25 23 -35 21 -22 -3z"/>
<path d="M353 331 c-17 -16 -56 -36 -87 -45 -77 -23 -107 -51 -113 -106 -4
-36 -1 -51 17 -73 12 -15 29 -31 39 -36 15 -8 17 -6 13 20 -6 44 13 62 60 54
54 -9 88 14 87 58 -1 17 -3 24 -6 15 -7 -28 -53 -35 -70 -12 -12 17 -12 21 7
34 53 38 71 57 79 88 5 17 9 32 8 32 -1 0 -16 -14 -34 -29z m-97 -116 c0 -22
-5 -35 -13 -35 -7 0 -21 -9 -30 -19 -19 -23 -33 -19 -33 10 0 20 50 79 67 79
5 0 9 -16 9 -35z"/>
</g>
</svg>
